<svg xmlns="http://www.w3.org/2000/svg" width="512" height="512" viewBox="0 0 512 512">
  <style>
    path, circle, rect, ellipse { fill: #ffffff; }
  </style>
  <g transform="translate(0,0)">
    <!-- بشقاب -->
    <ellipse cx="256" cy="300" rx="150" ry="45" fill="#e0e0e0" />
    
    <!-- برنج -->
    <ellipse cx="256" cy="280" rx="120" ry="30" fill="#f5f5f5" />
    
    <!-- خورشت -->
    <circle cx="210" cy="260" r="40" fill="#ff9800" />
    
    <!-- قاشق و چنگال -->
    <path d="M120,320 L150,220 L160,220 L140,320 Z" fill="#e0e0e0" />
    <path d="M320,320 L350,220 C350,220 360,200 370,220 C380,240 380,240 370,260 L340,320 Z" fill="#e0e0e0" />
    
    <!-- بخار -->
    <path d="M240,240 C250,230 260,210 255,200 M260,235 C270,225 280,205 275,195 M280,245 C290,235 300,215 295,205" stroke="#f5f5f5" stroke-width="4" fill="none" />
    
    <!-- سبزیجات -->
    <circle cx="230" cy="250" r="7" fill="#4CAF50" />
    <circle cx="250" cy="260" r="5" fill="#4CAF50" />
    <circle cx="240" cy="270" r="6" fill="#4CAF50" />
    
    <!-- قاشق و چنگال -->
    <path d="M340,180 L330,120 L340,110 L350,120 L340,180 Z" fill="#bdbdbd" />
    <path d="M370,180 L360,120 C360,120 350,110 360,100 C370,90 380,90 390,100 L380,180 Z" fill="#bdbdbd" />
    
    <!-- نوشیدنی -->
    <path d="M150,250 L150,170 C150,160 160,160 170,160 L180,160 C190,160 200,160 200,170 L200,250 C200,260 190,260 180,260 L170,260 C160,260 150,260 150,250 Z" fill="#2196F3" />
    <path d="M170,160 L180,160 L180,140 L170,140 Z" fill="#2196F3" />
    
    <!-- لیوان -->
    <ellipse cx="175" cy="250" rx="25" ry="10" fill="#1E88E5" />
    
    <!-- نی -->
    <path d="M160,160 L150,130 L155,125 L160,160 Z" fill="#FFC107" />
    
  </g>
</svg>