<svg xmlns="http://www.w3.org/2000/svg" width="1000" height="600" viewBox="0 0 1000 600">
  <!-- پس زمینه دیوار سلف -->
  <rect width="1000" height="600" fill="#f5f5f5"/>
  
  <!-- کاشی کاری اسلامی روی دیوار -->
  <defs>
    <pattern id="islamic-pattern" x="0" y="0" width="40" height="40" patternUnits="userSpaceOnUse">
      <path d="M0,0 L40,0 L40,40 L0,40 Z" fill="none" stroke="#004d40" stroke-width="0.5" opacity="0.2"/>
      <path d="M20,0 L40,20 L20,40 L0,20 Z" fill="none" stroke="#004d40" stroke-width="0.5" opacity="0.2"/>
      <circle cx="20" cy="20" r="10" fill="none" stroke="#004d40" stroke-width="0.5" opacity="0.2"/>
    </pattern>
  </defs>
  <rect width="1000" height="150" fill="url(#islamic-pattern)"/>
  
  <!-- کف سلف -->
  <rect y="150" width="1000" height="450" fill="#f0f0f0"/>
  
  <!-- خط جداکننده بین دیوار و کف -->
  <rect y="150" width="1000" height="10" fill="#004d40"/>
  
  <!-- ساعت اسلامی روی دیوار -->
  <circle cx="500" cy="75" r="40" fill="#ffffff" stroke="#004d40" stroke-width="2"/>
  <circle cx="500" cy="75" r="35" fill="none" stroke="#004d40" stroke-width="1"/>
  <path d="M500,75 L500,50" stroke="#004d40" stroke-width="2"/>
  <path d="M500,75 L520,85" stroke="#004d40" stroke-width="2"/>
  
  <!-- طاق نماهای اسلامی روی دیوار -->
  <path d="M100,125 Q200,50 300,125" fill="none" stroke="#e8b835" stroke-width="2" opacity="0.7"/>
  <path d="M700,125 Q800,50 900,125" fill="none" stroke="#e8b835" stroke-width="2" opacity="0.7"/>
  
  <!-- بخش سرو غذا در سمت چپ -->
  <rect x="50" y="200" width="300" height="80" rx="5" ry="5" fill="#e0e0e0" stroke="#004d40" stroke-width="2"/>
  <rect x="80" y="180" width="240" height="20" fill="#004d40"/>
  
  <!-- دیس های غذا در پیشخوان -->
  <rect x="100" y="210" width="50" height="50" rx="5" ry="5" fill="#ffd54f" stroke="#004d40" stroke-width="1"/>
  <rect x="180" y="210" width="50" height="50" rx="5" ry="5" fill="#ffd54f" stroke="#004d40" stroke-width="1"/>
  <rect x="260" y="210" width="50" height="50" rx="5" ry="5" fill="#ffd54f" stroke="#004d40" stroke-width="1"/>
  
  <!-- دیوار جداکننده بین بخش آقایان و خانم ها -->
  <rect x="500" y="160" width="10" height="440" fill="#004d40" opacity="0.8"/>
  <rect x="485" y="250" width="40" height="80" rx="5" ry="5" fill="#f5f5f5" stroke="#004d40" stroke-width="2"/>
  <text x="505" y="290" font-family="Arial" font-size="14" fill="#004d40" text-anchor="middle" dominant-baseline="middle">جدا</text>
  <text x="505" y="310" font-family="Arial" font-size="14" fill="#004d40" text-anchor="middle" dominant-baseline="middle">شده</text>
  
  <!-- بخش آقایان (سمت راست) -->
  <!-- میزهای آقایان -->
  <rect x="550" y="250" width="100" height="60" rx="5" ry="5" fill="#e0e0e0" stroke="#004d40" stroke-width="1"/>
  <rect x="700" y="250" width="100" height="60" rx="5" ry="5" fill="#e0e0e0" stroke="#004d40" stroke-width="1"/>
  <rect x="850" y="250" width="100" height="60" rx="5" ry="5" fill="#e0e0e0" stroke="#004d40" stroke-width="1"/>
  
  <rect x="550" y="400" width="100" height="60" rx="5" ry="5" fill="#e0e0e0" stroke="#004d40" stroke-width="1"/>
  <rect x="700" y="400" width="100" height="60" rx="5" ry="5" fill="#e0e0e0" stroke="#004d40" stroke-width="1"/>
  <rect x="850" y="400" width="100" height="60" rx="5" ry="5" fill="#e0e0e0" stroke="#004d40" stroke-width="1"/>
  
  <!-- دانشجویان آقا (انتزاعی) -->
  <!-- دانشجو 1 -->
  <circle cx="580" cy="230" r="15" fill="#004d40"/>
  <rect x="570" y="245" width="20" height="25" fill="#004d40" rx="5" ry="5"/>
  
  <!-- دانشجو 2 -->
  <circle cx="620" cy="230" r="15" fill="#004d40"/>
  <rect x="610" y="245" width="20" height="25" fill="#004d40" rx="5" ry="5"/>
  
  <!-- دانشجو 3 -->
  <circle cx="730" cy="230" r="15" fill="#004d40"/>
  <rect x="720" y="245" width="20" height="25" fill="#004d40" rx="5" ry="5"/>
  
  <!-- دانشجو 4 -->
  <circle cx="770" cy="230" r="15" fill="#004d40"/>
  <rect x="760" y="245" width="20" height="25" fill="#004d40" rx="5" ry="5"/>
  
  <!-- دانشجو 5 -->
  <circle cx="880" cy="230" r="15" fill="#004d40"/>
  <rect x="870" y="245" width="20" height="25" fill="#004d40" rx="5" ry="5"/>
  
  <!-- دانشجو 6 -->
  <circle cx="920" cy="230" r="15" fill="#004d40"/>
  <rect x="910" y="245" width="20" height="25" fill="#004d40" rx="5" ry="5"/>
  
  <!-- بخش خانم ها (سمت چپ) -->
  <!-- میزهای خانم ها -->
  <rect x="50" y="350" width="100" height="60" rx="5" ry="5" fill="#e0e0e0" stroke="#004d40" stroke-width="1"/>
  <rect x="200" y="350" width="100" height="60" rx="5" ry="5" fill="#e0e0e0" stroke="#004d40" stroke-width="1"/>
  <rect x="350" y="350" width="100" height="60" rx="5" ry="5" fill="#e0e0e0" stroke="#004d40" stroke-width="1"/>
  
  <rect x="125" y="500" width="100" height="60" rx="5" ry="5" fill="#e0e0e0" stroke="#004d40" stroke-width="1"/>
  <rect x="275" y="500" width="100" height="60" rx="5" ry="5" fill="#e0e0e0" stroke="#004d40" stroke-width="1"/>
  
  <!-- دانشجویان خانم با چادر (انتزاعی) -->
  <!-- دانشجوی چادری 1 -->
  <path d="M80,330 Q100,310 120,330 Q100,340 80,330" fill="#1a237e"/>
  <circle cx="100" cy="315" r="10" fill="#fce4ec" stroke="#1a237e" stroke-width="1"/>
  
  <!-- دانشجوی چادری 2 -->
  <path d="M130,330 Q150,310 170,330 Q150,340 130,330" fill="#1a237e"/>
  <circle cx="150" cy="315" r="10" fill="#fce4ec" stroke="#1a237e" stroke-width="1"/>
  
  <!-- دانشجوی چادری 3 -->
  <path d="M230,330 Q250,310 270,330 Q250,340 230,330" fill="#1a237e"/>
  <circle cx="250" cy="315" r="10" fill="#fce4ec" stroke="#1a237e" stroke-width="1"/>
  
  <!-- دانشجوی چادری 4 -->
  <path d="M280,330 Q300,310 320,330 Q300,340 280,330" fill="#1a237e"/>
  <circle cx="300" cy="315" r="10" fill="#fce4ec" stroke="#1a237e" stroke-width="1"/>
  
  <!-- دانشجوی چادری 5 -->
  <path d="M380,330 Q400,310 420,330 Q400,340 380,330" fill="#1a237e"/>
  <circle cx="400" cy="315" r="10" fill="#fce4ec" stroke="#1a237e" stroke-width="1"/>
  
  <!-- دانشجوی چادری 6 -->
  <path d="M430,330 Q450,310 470,330 Q450,340 430,330" fill="#1a237e"/>
  <circle cx="450" cy="315" r="10" fill="#fce4ec" stroke="#1a237e" stroke-width="1"/>
  
  <!-- ظروف غذا روی میزها -->
  <circle cx="75" cy="380" r="10" fill="#ffd54f" stroke="#004d40" stroke-width="1"/>
  <circle cx="125" cy="380" r="10" fill="#ffd54f" stroke="#004d40" stroke-width="1"/>
  <circle cx="225" cy="380" r="10" fill="#ffd54f" stroke="#004d40" stroke-width="1"/>
  <circle cx="275" cy="380" r="10" fill="#ffd54f" stroke="#004d40" stroke-width="1"/>
  <circle cx="375" cy="380" r="10" fill="#ffd54f" stroke="#004d40" stroke-width="1"/>
  <circle cx="425" cy="380" r="10" fill="#ffd54f" stroke="#004d40" stroke-width="1"/>
  
  <circle cx="575" cy="280" r="10" fill="#ffd54f" stroke="#004d40" stroke-width="1"/>
  <circle cx="625" cy="280" r="10" fill="#ffd54f" stroke="#004d40" stroke-width="1"/>
  <circle cx="725" cy="280" r="10" fill="#ffd54f" stroke="#004d40" stroke-width="1"/>
  <circle cx="775" cy="280" r="10" fill="#ffd54f" stroke="#004d40" stroke-width="1"/>
  <circle cx="875" cy="280" r="10" fill="#ffd54f" stroke="#004d40" stroke-width="1"/>
  <circle cx="925" cy="280" r="10" fill="#ffd54f" stroke="#004d40" stroke-width="1"/>
  
  <!-- آبخوری ها -->
  <rect x="40" y="550" width="60" height="30" rx="5" ry="5" fill="#81d4fa" stroke="#004d40" stroke-width="1"/>
  <rect x="140" y="550" width="60" height="30" rx="5" ry="5" fill="#81d4fa" stroke="#004d40" stroke-width="1"/>
  <rect x="240" y="550" width="60" height="30" rx="5" ry="5" fill="#81d4fa" stroke="#004d40" stroke-width="1"/>
  <rect x="700" y="550" width="60" height="30" rx="5" ry="5" fill="#81d4fa" stroke="#004d40" stroke-width="1"/>
  <rect x="800" y="550" width="60" height="30" rx="5" ry="5" fill="#81d4fa" stroke="#004d40" stroke-width="1"/>
  <rect x="900" y="550" width="60" height="30" rx="5" ry="5" fill="#81d4fa" stroke="#004d40" stroke-width="1"/>
  
  <!-- تابلوی راهنما -->
  <rect x="485" y="170" width="40" height="60" rx="5" ry="5" fill="#004d40" stroke="#e8b835" stroke-width="2"/>
  <text x="505" y="195" font-family="Arial" font-size="12" fill="#ffffff" text-anchor="middle" dominant-baseline="middle">سلف</text>
  <text x="505" y="215" font-family="Arial" font-size="12" fill="#ffffff" text-anchor="middle" dominant-baseline="middle">دانشجویی</text>
  
  <!-- اسم بخش ها -->
  <text x="250" y="450" font-family="Arial" font-size="16" fill="#004d40" text-anchor="middle" dominant-baseline="middle">بخش خواهران</text>
  <text x="750" y="450" font-family="Arial" font-size="16" fill="#004d40" text-anchor="middle" dominant-baseline="middle">بخش برادران</text>
  
  <!-- زیور اسلامی در گوشه های تصویر -->
  <path d="M50,50 Q75,25 100,50 Q75,75 50,50" fill="none" stroke="#e8b835" stroke-width="2" opacity="0.5"/>
  <path d="M900,50 Q925,25 950,50 Q925,75 900,50" fill="none" stroke="#e8b835" stroke-width="2" opacity="0.5"/>
  <path d="M50,550 Q75,575 100,550 Q75,525 50,550" fill="none" stroke="#e8b835" stroke-width="2" opacity="0.5"/>
  <path d="M900,550 Q925,575 950,550 Q925,525 900,550" fill="none" stroke="#e8b835" stroke-width="2" opacity="0.5"/>
</svg>